%
T1C.01181F95S300
X184450Y204050
X184450Y206050
X184450Y208050
X184450Y210050
X184450Y212050
X184450Y214050
X184450Y216050
X184450Y218050
X184450Y220050
X184450Y221950
X184450Y224050
X184450Y226050
X184450Y228050
X184450Y229650
X185650Y230850
X184450Y230850
X184450Y232850
X184450Y234950
X184450Y236850
X186250Y238450
X184450Y238650
X184450Y240650
X188250Y240450
X188250Y239450
X188898Y237244
X188750Y236350
X188650Y235450
X187650Y235450
X188950Y234450
X187250Y233850
X187250Y232850
X188738Y232340
X189050Y232028
X189050Y231050
X187008Y230236
X188650Y228650
X189350Y225650
X188740Y225039
X188450Y224210
X188390Y223910
X189350Y221570
X189360Y213440
X189150Y212850
X189430Y210850
X189430Y209520
X188750Y209150
X188750Y205550
X191850Y208250
X189450Y208650
X190250Y208650
X191102Y209764
X190250Y209850
X190850Y210050
X190850Y210850
X191184Y211174
X191184Y212039
X190340Y212040
X190850Y212050
X191184Y212590
X190850Y212650
X190340Y213160
X190340Y214420
X190830Y214700
X190250Y216350
X190250Y217750
X190850Y218270
X190790Y218930
X190130Y222110
X190476Y222113
X190476Y222349
X191184Y222743
X190236Y227874
X191656Y228488
X191339Y228976
X189528Y230000
X189528Y230551
X191260Y231260
X191936Y232028
X190869Y232816
X190161Y233288
X190142Y234836
X190790Y234941
X190000Y236772
X191300Y236975
X191450Y237650
X191450Y238450
X191550Y239450
X191250Y241050
X194050Y241050
X193100Y240275
X192725Y240275
X194050Y239850
X192250Y239450
X194050Y238450
X192250Y238450
X193550Y237750
X194150Y237750
X192250Y237650
X192250Y236650
X194350Y236550
X194042Y235850
X193106Y233543
X193151Y233210
X192522Y232738
X193130Y231470
X191969Y231260
X194210Y231110
X193228Y229606
X192441Y229213
X191971Y228488
X193780Y227559
X193780Y227244
X194175Y226992
X192364Y226205
X192364Y225969
X194253Y225261
X194253Y224946
X191971Y224868
X194253Y224553
X192050Y222428
X194411Y221798
X194331Y221339
X192758Y219673
X193730Y219230
X192915Y219044
X193610Y218930
X193420Y218620
X193560Y218340
X193280Y218060
X193630Y217850
X193350Y217570
X192286Y213771
X193466Y213771
X192679Y213771
X193073Y213771
X192050Y213535
X192207Y213220
X192601Y213141
X194252Y212283
X193938Y212276
X192126Y211575
X192443Y208970
X192128Y208970
X192850Y208250
X192913Y207717
X193624Y205350
X192837Y204878
X192050Y204878
X192207Y203933
X193073Y203933
X192679Y203933
X195906Y204091
X194962Y206767
X194962Y207081
X194567Y207323
X196299Y207396
X195433Y207402
X196299Y208026
X196929Y208031
X195040Y208891
X195040Y209206
X195985Y210151
X194489Y211016
X194488Y211417
X194804Y212276
X195119Y212276
X196925Y213275
X194489Y213299
X194804Y213299
X195827Y213613
X195827Y213850
X196490Y214010
X195276Y214322
X194470Y214350
X194961Y214567
X195198Y214637
X195425Y215450
X195749Y216447
X195040Y217627
X195749Y220224
X194647Y220224
X195591Y220539
X194489Y221011
X195355Y221641
X194450Y222428
X194450Y222950
X196790Y223130
X196310Y223190
X196010Y223370
X194810Y223910
X195170Y223970
X195749Y224159
X195434Y224317
X196063Y224474
X196430Y224630
X195512Y224868
X194962Y224946
X196142Y225197
X194962Y225261
X195827Y225276
X196457Y225276
X196929Y225354
X195512Y225354
X194725Y226992
X195197Y227402
X196220Y229750
X195470Y230150
X196550Y230450
X194570Y231140
X195170Y231530
X194870Y231650
X195590Y231650
X194499Y232340
X195670Y232895
X196063Y232913
X195170Y233390
X196457Y233603
X195150Y233750
X196670Y233990
X196910Y234290
X196250Y234350
X195197Y234409
X196221Y234784
X196050Y235150
X195450Y235150
X196457Y235177
X196150Y236750
X195750Y236950
X194750Y237750
X195906Y238268
X196850Y239899
X196850Y240686
X198110Y237302
X198660Y237302
X198660Y236830
X197637Y236122
X198250Y235750
X199290Y235728
X197250Y235150
X198450Y234850
X197350Y234650
X198450Y233950
X197030Y233930
X198424Y233367
X197323Y233131
X198503Y232816
X197873Y232659
X197559Y231951
X198739Y231793
X199130Y231710
X197870Y231470
X197450Y231350
X198110Y231242
X197990Y230450
X199050Y230450
X199133Y229747
X198188Y229590
X197480Y228252
X198267Y228094
X197225Y227750
X198750Y227750
X197716Y226914
X197323Y225354
X199310Y225350
X197873Y225340
X198188Y225340
X198739Y225182
X199054Y225104
X198424Y225104
X197030Y224870
X197330Y224870
X198346Y224789
X197795Y224789
X199054Y223215
X197630Y223190
X198110Y223190
X198110Y222900
X197244Y222900
X199070Y222900
X199070Y222530
X198110Y222290
X198975Y222270
X197244Y222270
X197559Y221169
X198582Y221090
X197340Y220720
X198267Y220696
X197873Y220618
X198660Y220618
X198975Y220303
X197570Y219110
X197870Y218990
X197270Y218930
X198050Y218750
X198050Y218375
X198250Y217550
X197244Y216998
X198818Y216604
X197750Y216470
X199211Y216447
X197008Y216289
X197750Y216110
X197008Y215896
X197750Y215810
X198050Y215570
X197008Y215502
X197690Y215450
X197690Y215150
X198470Y214790
X197990Y214790
X197750Y214430
X198818Y213299
X197390Y213170
X197270Y212270
X198897Y212039
X197162Y211982
X198503Y211567
X197240Y211358
X199134Y211102
X198739Y211016
X199449Y209764
X197850Y208350
X199034Y206522
X197874Y206299
X199369Y203855
X200628Y204563
X200628Y205193
X201125Y205925
X200707Y206294
X199605Y206294
X199762Y207081
X201350Y207425
X200156Y207711
X200930Y208010
X199920Y209206
X200690Y209270
X201350Y209870
X201050Y210125
X200750Y210275
X201651Y210938
X201651Y211331
X199684Y211567
X200510Y212630
X200810Y212630
X200690Y213170
X201710Y213530
X201710Y213830
X200628Y213928
X200630Y214210
X200450Y214873
X200943Y214873
X200450Y215250
X201150Y216150
X200450Y216150
X201808Y217391
X200140Y217710
X201730Y217863
X201730Y218572
X200628Y219122
X200392Y219201
X200313Y219988
X200707Y220067
X199684Y220146
X201021Y220224
X201730Y220382
X201336Y220382
X201258Y222428
X201100Y222743
X201887Y222821
X201021Y223136
X200864Y223687
X201258Y224002
X201102Y225197
X200709Y225197
X201650Y227030
X201415Y227450
X199760Y227450
X199684Y228330
X201572Y228488
X201572Y229275
X199526Y229432
X201179Y230455
X201887Y230455
X200030Y231590
X200810Y231710
X201550Y232750
X199605Y233682
X199843Y234705
X201650Y235450
X199684Y235728
X199605Y236751
X199528Y237323
X200787Y237323
X201650Y239650
X200156Y240686
X202750Y239650
X204200Y238500
X202992Y237874
X202250Y237800
X202989Y236673
X204248Y236673
X202674Y230455
X203850Y230450
X204410Y230270
X204110Y230150
X203250Y229650
X204012Y229353
X203776Y229117
X204110Y228710
X203855Y227858
X204050Y227630
X202281Y227386
X201980Y227030
X203619Y226914
X203330Y226730
X203630Y226550
X202595Y225104
X202438Y224789
X202753Y224553
X202753Y224159
X202674Y223844
X202989Y223530
X203855Y223530
X203382Y222979
X202520Y222960
X202674Y221798
X202359Y221720
X202202Y221405
X202595Y221169
X202595Y220854
X202359Y220618
X202123Y220382
X203933Y220303
X202123Y217470
X202370Y213770
X202370Y213530
X202850Y213150
X203050Y212650
X202370Y212390
X202430Y212030
X202250Y211725
X202202Y211331
X203050Y211250
X202202Y210938
X203050Y210250
X202359Y209600
X203050Y209285
X202325Y209000
X203619Y207947
X204252Y207638
X204252Y207323
X202520Y206220
X203780Y206220
X202989Y205901
X203850Y205450
X203780Y204882
X204094Y204882
X203850Y204250
X203068Y204248
X209350Y204050
X205450Y204850
X204760Y204970
X209350Y206050
X209350Y207950
X209350Y210050
X209350Y212050
X209350Y214050
X209350Y216050
X209350Y218050
X205507Y218886
X205743Y219359
X209350Y220050
X209350Y222050
X209350Y224050
X205610Y225950
X209350Y226150
X205130Y227570
X205130Y227930
X209350Y227950
X208970Y229826
X208577Y229826
X204770Y230270
X209350Y230850
X206750Y230950
X209350Y233650
X209350Y236050
X209350Y238050
X204900Y238430
X206450Y239650
X205750Y239650
X209350Y239950
T2C.02559F197S550
X199226Y205738
X197474Y205738
T3C.032F197S550
X194945Y228740
X196866Y228740
X191780Y233876
X191780Y235797
T4C.03268F197S550
X196707Y204408
X196707Y204547
X196707Y204699
X199994Y204699
X199994Y204547
X199994Y204408
T5C.03543F197S550
X199226Y204252
X197474Y204252
X197474Y204360
X199226Y204360
X197474Y204469
X199226Y204469
T6C.03937F197S550
X196126Y240178
X197856Y240178
T7C.04F139S550
X186350Y204535
X186350Y205535
X186350Y206535
X186350Y207535
X186350Y208535
X186350Y209535
X186350Y210535
X186350Y211535
X186350Y212535
X186350Y213535
X186350Y214535
X186350Y215535
X186350Y216535
X186350Y217535
X186350Y218535
X186350Y219535
X186350Y220535
X186350Y221535
X186350Y222535
X186350Y223535
X186350Y224535
X186350Y225535
X186350Y226535
X186350Y227535
X186350Y228535
X186350Y232402
X186350Y233402
X186350Y234402
X186350Y235402
X186350Y236402
X186350Y237402
X186350Y239535
X186350Y240535
X187350Y228535
X187350Y227535
X187350Y226535
X187350Y225535
X187350Y224535
X187350Y223535
X187350Y222535
X187350Y221535
X187350Y220535
X187350Y219535
X187350Y218535
X187350Y217535
X187350Y216535
X187350Y215535
X187350Y214535
X187350Y213535
X187350Y212535
X187350Y211535
X187350Y210535
X187350Y209535
X187350Y208535
X187350Y207535
X187350Y206535
X187350Y205535
X187350Y204535
X190790Y224604
X190790Y225604
X202480Y232205
X202480Y233205
X202480Y234205
X202480Y235205
X206350Y228535
X206350Y227535
X206350Y226535
X206350Y225535
X206350Y224535
X206350Y223535
X206350Y222535
X206350Y221535
X206350Y220535
X206350Y219535
X206350Y218535
X206350Y217535
X206350Y216535
X206350Y215535
X206350Y214535
X206350Y213535
X206350Y212535
X206350Y211535
X206350Y210535
X206350Y209535
X206350Y208535
X206350Y207535
X206350Y206535
X206350Y205535
X206350Y204535
X207350Y204535
X207350Y205535
X207350Y206535
X207350Y207535
X207350Y208535
X207350Y209535
X207350Y210535
X207350Y211535
X207350Y212535
X207350Y213535
X207350Y214535
X207350Y215535
X207350Y216535
X207350Y217535
X207350Y218535
X207350Y219535
X207350Y220535
X207350Y221535
X207350Y222535
X207350Y223535
X207350Y224535
X207350Y225535
X207350Y226535
X207350Y227535
X207350Y228535
X207350Y239535
X207350Y240535
T8C.04724F139S550
X191244Y204315
X191144Y204315
X191344Y204315
X190357Y205220
X190557Y205220
X190364Y207386
X190457Y207386
X190557Y207386
T9C.05512F107S550
X190457Y205220
M30
